# xmcd
#
# Track frame offsets:
#	150
#	12895
#	24339
#	38122
#	51938
#	62936
#	77171
#	89211
#	100098
#	112392
#	126247
#	137569
#	149653
#	160789
#	172152
#	188052
#	200644
#	213330
#	226209
#	238047
#
# Disc length: 3343 seconds
#
# Revision: 1
# Processed by: cddbd v1.5.2PL0 Copyright (c) Steve Scherf et al.
# Submitted via: audiograbber 1.83.01
#
DISCID=280d0d14
DTITLE=Ray Charles - The Signature Collection (Disc2)
DYEAR=2007
DGENRE=Soul
TTITLE0=I Got A Woman
TTITLE1=What Have I Done
TTITLE2=This Love Of Mine
TTITLE3=Misery In My Heart
TTITLE4=A Sentimental Blues
TTITLE5=Walkin´ And Talkin´
TTITLE6=Mess Around
TTITLE7=I Wonder Who´s Kissing Her Now
TTITLE8=I´ve Had My Fun
TTITLE9=Late In The Evening Blues
TTITLE10=She´s On The ball
TTITLE11=I´m Glad For Your Sake
TTITLE12=I´ll Do Anything But Work
TTITLE13=Confession Blues
TTITLE14=Let Me Hear You Call My Name
TTITLE15=Back Home
TTITLE16=Blues Before Sunrise
TTITLE17=Mary Ann
TTITLE18=The Sun´s Gonna Shine
TTITLE19=Can Anyone Ask For More?
EXTD=
EXTT0=
EXTT1=
EXTT2=
EXTT3=
EXTT4=
EXTT5=
EXTT6=
EXTT7=
EXTT8=
EXTT9=
EXTT10=
EXTT11=
EXTT12=
EXTT13=
EXTT14=
EXTT15=
EXTT16=
EXTT17=
EXTT18=
EXTT19=
PLAYORDER=
